<?xml version="1.0" standalone="no"?>
<!DOCTYPE svg PUBLIC "-//W3C//DTD SVG 20010904//EN"
 "http://www.w3.org/TR/2001/REC-SVG-20010904/DTD/svg10.dtd">
<svg version="1.0" xmlns="http://www.w3.org/2000/svg"
 width="16.000000pt" height="16.000000pt" viewBox="0 0 16.000000 16.000000"
 preserveAspectRatio="xMidYMid meet">
<metadata>
Created by potrace 1.11, written by Peter Selinger 2001-2013
</metadata>
<g transform="translate(0.000000,16.000000) scale(0.005333,-0.005333)"
fill="#000000" stroke="none">
<path d="M1152 2403 c-28 -48 -215 -378 -418 -733 -327 -575 -367 -651 -371
-697 -6 -67 9 -111 57 -166 109 -123 354 -222 680 -273 165 -27 625 -27 790 0
326 51 571 150 680 273 48 55 63 99 57 166 -4 46 -48 129 -417 777 -227 399
-415 728 -419 732 -3 4 -37 -9 -76 -28 -159 -78 -316 -68 -506 34 -4 1 -29
-37 -57 -85z m558 -598 l0 -55 -185 0 -185 0 0 -105 0 -104 158 -3 157 -3 3
-52 3 -53 -160 0 -161 0 0 -120 0 -120 185 0 185 0 0 -55 0 -55 -255 0 -255 0
0 390 0 390 255 0 255 0 0 -55z"/>
</g>
</svg>
