<!DOCTYPE svg PUBLIC "-//W3C//DTD SVG 20010904//EN" "http://www.w3.org/TR/2001/REC-SVG-20010904/DTD/svg10.dtd">
<svg version="1.0" xmlns="http://www.w3.org/2000/svg" width="1122px" height="218px" viewBox="0 0 11220 2180" preserveAspectRatio="xMidYMid meet">
<g id="layer1" fill="#51d62d" stroke="none">
 <path d="M64 1708 l-29 -33 33 29 c17 17 32 31 32 33 0 8 -8 1 -36 -29z"/>
 <path d="M1060 1737 c0 -2 15 -16 33 -33 l32 -29 -29 33 c-28 30 -36 37 -36 29z"/>
 <path d="M215 1510 c-3 -6 1 -7 9 -4 18 7 21 14 7 14 -6 0 -13 -4 -16 -10z"/>
 <path d="M920 1516 c0 -2 7 -7 16 -10 8 -3 12 -2 9 4 -6 10 -25 14 -25 6z"/>
 <path d="M185 1479 c-4 -6 -5 -12 -2 -15 2 -3 7 2 10 11 7 17 1 20 -8 4z"/>
 <path d="M966 1477 c3 -10 9 -15 12 -12 3 3 0 11 -7 18 -10 9 -11 8 -5 -6z"/>
 <path d="M180 1411 c0 -6 4 -13 10 -16 6 -3 7 1 4 9 -7 18 -14 21 -14 7z"/>
 <path d="M966 1403 c-6 -14 -5 -15 5 -6 7 7 10 15 7 18 -3 3 -9 -2 -12 -12z"/>
 <path d="M217 1369 c7 -7 15 -10 18 -7 3 3 -2 9 -12 12 -14 6 -15 5 -6 -5z"/>
 <path d="M930 1370 c-9 -6 -10 -10 -3 -10 6 0 15 5 18 10 8 12 4 12 -15 0z"/>
 <path d="M215 1190 c-3 -6 1 -7 9 -4 18 7 21 14 7 14 -6 0 -13 -4 -16 -10z"/>
 <path d="M920 1196 c0 -2 7 -7 16 -10 8 -3 12 -2 9 4 -6 10 -25 14 -25 6z"/>
 <path d="M185 1159 c-4 -6 -5 -12 -2 -15 2 -3 7 2 10 11 7 17 1 20 -8 4z"/>
 <path d="M966 1157 c3 -10 9 -15 12 -12 3 3 0 11 -7 18 -10 9 -11 8 -5 -6z"/>
 <path d="M180 1091 c0 -6 4 -13 10 -16 6 -3 7 1 4 9 -7 18 -14 21 -14 7z"/>
 <path d="M966 1083 c-6 -14 -5 -15 5 -6 7 7 10 15 7 18 -3 3 -9 -2 -12 -12z"/>
 <path d="M217 1049 c7 -7 15 -10 18 -7 3 3 -2 9 -12 12 -14 6 -15 5 -6 -5z"/>
 <path d="M930 1050 c-9 -6 -10 -10 -3 -10 6 0 15 5 18 10 8 12 4 12 -15 0z"/>
 <path d="M215 870 c-3 -6 1 -7 9 -4 18 7 21 14 7 14 -6 0 -13 -4 -16 -10z"/>
 <path d="M920 876 c0 -2 7 -7 16 -10 8 -3 12 -2 9 4 -6 10 -25 14 -25 6z"/>
 <path d="M185 839 c-4 -6 -5 -12 -2 -15 2 -3 7 2 10 11 7 17 1 20 -8 4z"/>
 <path d="M966 837 c3 -10 9 -15 12 -12 3 3 0 11 -7 18 -10 9 -11 8 -5 -6z"/>
 <path d="M180 771 c0 -6 4 -13 10 -16 6 -3 7 1 4 9 -7 18 -14 21 -14 7z"/>
 <path d="M966 763 c-6 -14 -5 -15 5 -6 7 7 10 15 7 18 -3 3 -9 -2 -12 -12z"/>
 <path d="M217 729 c7 -7 15 -10 18 -7 3 3 -2 9 -12 12 -14 6 -15 5 -6 -5z"/>
 <path d="M930 730 c-9 -6 -10 -10 -3 -10 6 0 15 5 18 10 8 12 4 12 -15 0z"/>
 <path d="M40 557 c0 -2 15 -16 33 -33 l32 -29 -29 33 c-28 30 -36 37 -36 29z"/>
 <path d="M1084 528 l-29 -33 33 29 c17 17 32 31 32 33 0 8 -8 1 -36 -29z"/>
 <path d="M331 384 c0 -11 3 -14 6 -6 3 7 2 16 -1 19 -3 4 -6 -2 -5 -13z"/>
 <path d="M190 356 c0 -2 8 -10 18 -17 15 -13 16 -12 3 4 -13 16 -21 21 -21 13z"/>
 <path d="M309 343 c-13 -16 -12 -17 4 -4 16 13 21 21 13 21 -2 0 -10 -8 -17 -17z"/>
 <path d="M949 343 c-13 -16 -12 -17 4 -4 16 13 21 21 13 21 -2 0 -10 -8 -17 -17z"/>
 </g>
<g id="layer2" fill="#2ece03" stroke="none">
 <path d="M125 1750 c-11 -4 -38 -27 -60 -50 l-40 -41 0 -539 0 -540 46 -45 c30 -31 55 -47 75 -48 28 -2 29 -5 35 -61 8 -68 32 -99 79 -99 46 0 70 30 77 96 l6 57 77 0 77 0 6 -60 c6 -71 16 -86 62 -94 61 -12 95 28 95 109 l0 45 80 0 80 0 0 -55 c0 -46 4 -60 25 -80 33 -34 74 -33 108 3 20 21 27 39 29 82 3 53 4 55 32 57 20 1 45 17 75 48 l46 45 0 540 0 540 -48 47 -47 48 -448 2 c-246 1 -456 -2 -467 -7z m832 -252 c30 -28 31 -83 1 -115 l-21 -23 -356 0 c-350 0 -355 0 -378 22 -30 28 -31 83 -1 115 l21 23 356 0 c350 0 355 0 378 -22z m0 -320 c30 -28 31 -83 1 -115 l-21 -23 -356 0 c-350 0 -355 0 -378 22 -30 28 -31 83 -1 115 l21 23 356 0 c350 0 355 0 378 -22z m0 -320 c30 -28 31 -83 1 -115 l-21 -23 -356 0 c-350 0 -355 0 -378 22 -30 28 -31 83 -1 115 l21 23 356 0 c350 0 355 0 378 -22z"/>
 </g>
<g id="layer3" fill="#000000" stroke="none">
 <path d="M9921 2159 c-73 -13 -130 -39 -180 -85 -55 -49 -81 -101 -81 -161 0 -99 61 -163 157 -163 49 0 59 4 89 34 28 28 34 42 34 76 0 34 -6 47 -31 71 -37 34 -29 52 30 69 115 32 255 -25 340 -138 55 -73 69 -140 48 -226 -14 -57 -305 -811 -359 -928 -34 -76 -44 -81 -135 -73 -69 6 -82 4 -103 -13 -17 -14 -24 -29 -24 -55 0 -75 54 -94 214 -76 83 9 141 10 247 1 152 -12 183 -9 209 20 26 28 22 87 -8 111 -20 17 -33 18 -100 12 -91 -7 -99 0 -79 67 48 159 275 808 281 801 10 -11 290 -779 297 -815 10 -49 -11 -61 -92 -54 -81 7 -115 -5 -129 -46 -13 -36 8 -83 45 -98 22 -10 54 -9 147 1 93 10 143 10 237 0 120 -11 169 -7 201 20 19 16 18 84 -2 103 -19 19 -22 20 -103 21 -62 0 -66 2 -87 32 -12 18 -106 243 -209 500 -251 627 -296 721 -402 834 -118 126 -289 186 -452 158z"/>
 <path d="M7553 1706 c-213 -52 -329 -229 -279 -427 21 -83 58 -134 135 -186 78 -53 126 -67 321 -92 249 -33 298 -56 319 -153 25 -111 -33 -211 -140 -242 -99 -30 -224 -14 -299 36 -54 37 -59 53 -27 86 21 22 27 38 27 71 0 23 -5 51 -10 62 -26 48 -129 65 -187 29 -96 -58 -80 -231 30 -326 56 -47 167 -100 245 -115 38 -7 100 -10 155 -6 155 9 260 58 324 152 63 91 66 111 72 530 5 314 9 384 21 403 28 43 91 43 124 -1 17 -23 21 -47 26 -153 4 -109 8 -128 24 -140 33 -23 82 -18 105 12 19 24 21 40 21 153 0 146 -9 188 -52 237 -50 57 -81 68 -188 69 -80 0 -102 -4 -138 -23 -42 -22 -102 -92 -102 -119 0 -20 -5 -17 -57 35 -83 83 -198 123 -347 121 -39 0 -94 -6 -123 -13z m308 -173 c58 -26 125 -86 148 -132 28 -54 41 -132 41 -236 l0 -93 -67 34 c-56 29 -89 37 -188 50 -199 25 -271 54 -316 128 -23 37 -25 112 -5 160 17 40 72 87 123 103 59 19 208 11 264 -14z"/>
 <path d="M8630 1683 c-33 -13 -50 -37 -50 -72 0 -68 31 -85 140 -75 122 10 115 35 115 -441 0 -376 -1 -391 -21 -425 l-20 -35 -93 0 c-102 0 -121 -10 -121 -66 0 -78 26 -87 224 -84 178 4 184 6 193 74 l6 41 53 -50 c73 -69 145 -101 243 -107 211 -15 371 97 401 281 25 154 -45 274 -167 284 -69 6 -115 -16 -138 -65 -29 -61 11 -133 77 -136 40 -2 48 -11 48 -58 0 -48 -35 -98 -90 -129 -61 -34 -184 -35 -246 -3 -132 69 -170 218 -162 629 6 291 15 308 149 290 64 -9 71 -8 90 11 32 32 28 91 -7 121 -27 24 -30 24 -133 16 -129 -11 -243 -11 -376 -2 -55 4 -107 4 -115 1z"/>
 </g>
<g id="layer4" fill="#ff3e84" stroke="none">
 <path d="M1965 2103 c-64 -8 -189 -45 -237 -69 -70 -35 -137 -100 -164 -159 -27 -57 -32 -151 -12 -217 16 -54 76 -120 142 -154 l55 -28 -52 -28 c-121 -65 -168 -183 -118 -294 21 -47 89 -109 138 -125 19 -6 32 -14 31 -17 -51 -96 -65 -170 -49 -255 15 -83 38 -124 101 -187 94 -95 221 -138 369 -127 43 3 84 7 92 9 8 2 15 -12 20 -39 10 -57 31 -94 73 -131 45 -40 101 -55 198 -55 130 0 220 59 247 160 20 72 -13 143 -76 170 -93 39 -172 -59 -108 -135 l25 -30 -26 -17 c-39 -25 -95 -30 -131 -12 -40 21 -50 35 -65 90 l-12 47 57 50 c38 35 67 72 89 118 31 62 33 74 33 167 0 89 -3 106 -28 156 -100 205 -356 284 -622 190 -111 -39 -147 -40 -174 -6 -50 64 -34 126 44 165 46 23 63 25 275 31 317 11 429 41 543 147 70 66 97 127 97 223 0 61 -5 85 -25 126 -57 114 -191 195 -380 229 -73 13 -275 17 -350 7z m390 -176 c69 -22 141 -70 165 -109 12 -20 20 -51 20 -78 0 -82 -55 -141 -170 -181 -58 -21 -84 -23 -230 -23 -146 0 -172 2 -228 22 -151 54 -211 142 -168 245 25 60 92 103 206 132 75 20 335 14 405 -8z m-114 -878 c51 -13 115 -62 138 -107 60 -117 21 -240 -96 -309 -37 -21 -62 -28 -127 -31 -76 -4 -85 -2 -146 30 -50 26 -71 44 -94 81 -70 113 -30 263 85 323 58 29 153 35 240 13z"/>
 <path d="M4963 1716 c-26 -23 -27 -27 -23 -97 5 -92 5 -242 -1 -331 -3 -55 -1 -70 15 -87 34 -37 125 -21 127 22 6 152 30 214 100 263 95 66 282 95 391 60 104 -34 160 -100 162 -190 1 -101 -70 -164 -209 -186 -224 -36 -267 -45 -341 -72 -132 -47 -194 -117 -209 -233 -8 -62 8 -153 37 -212 28 -55 110 -132 172 -162 147 -68 331 -67 467 3 l49 26 0 -25 c0 -59 94 -90 135 -45 16 18 17 32 11 129 -3 62 -2 141 5 185 12 91 1 137 -37 155 -38 17 -62 13 -89 -14 -21 -20 -25 -34 -25 -82 -1 -76 -26 -131 -77 -166 -145 -100 -373 -64 -442 70 -14 28 -14 108 0 136 39 75 88 96 288 127 210 32 295 64 372 140 62 62 83 125 77 234 -6 100 -34 161 -107 230 -165 154 -477 168 -683 32 l-28 -18 0 45 c0 37 -5 49 -26 66 -35 28 -76 26 -111 -3z"/>
 <path d="M6143 1716 c-26 -23 -27 -27 -23 -97 5 -92 5 -242 -1 -331 -3 -55 -1 -70 15 -87 34 -37 125 -21 127 22 6 152 30 214 100 263 95 66 282 95 391 60 104 -34 160 -100 162 -190 1 -101 -70 -164 -209 -186 -224 -36 -267 -45 -341 -72 -132 -47 -194 -117 -209 -233 -8 -62 8 -153 37 -212 28 -55 110 -132 172 -162 147 -68 331 -67 467 3 l49 26 0 -25 c0 -59 94 -90 135 -45 16 18 17 32 11 129 -3 62 -2 141 5 185 12 91 1 137 -37 155 -38 17 -62 13 -89 -14 -21 -20 -25 -34 -25 -82 -1 -76 -26 -131 -77 -166 -145 -100 -373 -64 -442 70 -14 28 -14 108 0 136 39 75 88 96 288 127 210 32 295 64 372 140 62 62 83 125 77 234 -6 100 -34 161 -107 230 -165 154 -477 168 -683 32 l-28 -18 0 45 c0 37 -5 49 -26 66 -35 28 -76 26 -111 -3z"/>
 <path d="M4010 1699 c-181 -47 -316 -191 -372 -396 -28 -104 -30 -324 -5 -428 68 -272 270 -435 542 -435 205 0 371 90 470 255 127 212 120 573 -15 781 -131 200 -373 288 -620 223z m315 -171 c143 -75 215 -226 215 -452 0 -314 -123 -476 -359 -476 -237 0 -371 177 -371 487 1 244 93 410 260 464 14 5 66 7 115 6 74 -3 99 -8 140 -29z"/>
 <path d="M2848 1679 c-20 -7 -31 -22 -40 -50 -10 -35 -9 -43 9 -67 20 -26 24 -27 113 -27 85 0 93 -2 108 -23 30 -46 43 -1225 14 -1279 -20 -37 -46 -45 -106 -34 -74 14 -121 0 -135 -39 -13 -38 2 -84 32 -97 12 -5 107 -9 212 -8 l190 0 12 25 c9 19 9 59 2 160 -5 74 -9 389 -7 698 l3 564 27 23 c23 20 32 22 65 14 97 -22 143 0 143 69 0 27 -7 45 -21 58 -19 17 -34 19 -133 15 -169 -7 -262 -7 -366 1 -61 5 -105 4 -122 -3z"/>
 </g>
<g id="layer5" fill="#ffffff" stroke="none">
 <path d="M0 1090 l0 -1090 5610 0 5610 0 0 1090 0 1090 -5610 0 -5610 0 0 -1090z m10170 1047 c111 -41 211 -125 286 -243 61 -95 121 -233 319 -727 103 -257 197 -482 209 -500 21 -30 25 -32 87 -32 81 -1 84 -2 103 -21 20 -19 21 -87 2 -103 -32 -27 -81 -31 -201 -20 -94 10 -144 10 -237 0 -93 -10 -125 -11 -147 -1 -37 15 -58 62 -45 98 14 41 48 53 129 46 81 -7 102 5 92 54 -7 36 -287 804 -297 815 -6 7 -233 -642 -281 -801 -20 -67 -12 -74 79 -67 67 6 80 5 100 -12 30 -24 34 -83 8 -111 -26 -29 -57 -32 -209 -20 -106 9 -164 8 -247 -1 -160 -18 -214 1 -214 76 0 26 7 41 24 55 21 17 34 19 103 13 91 -8 101 -3 135 73 54 117 345 871 359 928 21 86 7 153 -48 226 -85 113 -225 170 -340 138 -59 -17 -67 -35 -30 -69 25 -24 31 -37 31 -71 0 -34 -6 -48 -34 -76 -30 -30 -40 -34 -89 -34 -96 0 -157 64 -157 163 0 116 111 220 261 246 73 13 182 3 249 -22z m-7855 -41 c189 -34 323 -115 380 -229 20 -41 25 -65 25 -126 0 -96 -27 -157 -97 -223 -114 -106 -226 -136 -543 -147 -212 -6 -229 -8 -275 -31 -78 -39 -94 -101 -44 -165 27 -34 63 -33 174 6 107 38 248 50 336 29 130 -31 233 -109 286 -219 25 -50 28 -67 28 -156 0 -93 -2 -105 -33 -167 -22 -46 -51 -83 -89 -118 l-57 -50 12 -47 c15 -55 25 -69 65 -90 36 -18 92 -13 131 12 l26 17 -25 30 c-64 76 15 174 108 135 63 -27 96 -98 76 -170 -16 -61 -51 -102 -114 -133 -99 -48 -260 -35 -331 28 -42 37 -63 74 -73 131 -5 27 -12 41 -20 39 -8 -2 -49 -6 -92 -9 -148 -11 -275 32 -369 127 -63 63 -86 104 -101 187 -16 85 -2 159 49 255 1 3 -12 11 -31 17 -49 16 -117 78 -138 125 -50 111 -3 229 118 294 l52 28 -55 28 c-66 34 -126 100 -142 154 -20 66 -15 160 12 217 27 59 94 124 164 159 48 24 173 61 237 69 75 10 277 6 350 -7z m-1249 -362 c15 -11 37 -33 48 -48 20 -27 21 -40 24 -544 2 -345 0 -529 -8 -554 -13 -45 -68 -95 -115 -104 -35 -6 -35 -6 -35 -61 0 -65 -29 -103 -80 -103 -51 0 -80 38 -80 105 l0 55 -80 0 -80 0 0 -46 c0 -72 -30 -113 -83 -114 -17 0 -38 10 -52 25 -21 20 -25 34 -25 80 l0 55 -80 0 -80 0 0 -55 c0 -67 -29 -105 -80 -105 -51 0 -80 38 -80 103 0 55 0 55 -35 61 -43 8 -94 50 -111 93 -18 42 -21 1034 -3 1080 6 15 20 39 32 52 47 50 50 51 529 48 434 -2 447 -3 474 -23z m4008 -15 c21 -17 26 -29 26 -66 l0 -45 28 18 c206 136 518 122 683 -32 73 -69 101 -130 107 -230 6 -109 -15 -172 -77 -234 -77 -76 -162 -108 -372 -140 -200 -31 -249 -52 -288 -127 -14 -28 -14 -108 0 -136 69 -134 297 -170 442 -70 51 35 76 90 77 166 0 48 4 62 25 82 27 27 51 31 89 14 38 -18 49 -64 37 -155 -7 -44 -8 -123 -5 -185 6 -97 5 -111 -11 -129 -41 -45 -135 -14 -135 45 l0 25 -49 -26 c-136 -70 -320 -71 -467 -3 -62 30 -144 107 -172 162 -29 59 -45 150 -37 212 15 116 77 186 209 233 74 27 117 36 341 72 87 14 162 53 189 100 43 73 17 178 -57 234 -108 82 -346 72 -476 -18 -70 -49 -94 -111 -100 -263 -2 -43 -93 -59 -127 -22 -16 17 -18 32 -15 87 6 89 6 239 1 331 -4 70 -3 74 23 97 35 29 76 31 111 3z m1180 0 c21 -17 26 -29 26 -66 l0 -45 28 18 c206 136 518 122 683 -32 73 -69 101 -130 107 -230 6 -109 -15 -172 -77 -234 -77 -76 -162 -108 -372 -140 -200 -31 -249 -52 -288 -127 -14 -28 -14 -108 0 -136 69 -134 297 -170 442 -70 51 35 76 90 77 166 0 48 4 62 25 82 27 27 51 31 89 14 38 -18 49 -64 37 -155 -7 -44 -8 -123 -5 -185 6 -97 5 -111 -11 -129 -41 -45 -135 -14 -135 45 l0 25 -49 -26 c-136 -70 -320 -71 -467 -3 -62 30 -144 107 -172 162 -29 59 -45 150 -37 212 15 116 77 186 209 233 74 27 117 36 341 72 87 14 162 53 189 100 43 73 17 178 -57 234 -108 82 -346 72 -476 -18 -70 -49 -94 -111 -100 -263 -2 -43 -93 -59 -127 -22 -16 17 -18 32 -15 87 6 89 6 239 1 331 -4 70 -3 74 23 97 35 29 76 31 111 3z m-1951 -14 c131 -28 249 -110 327 -229 135 -208 142 -569 15 -781 -99 -165 -265 -255 -470 -255 -272 0 -474 163 -542 435 -25 104 -23 324 5 428 40 147 132 278 244 344 108 66 277 89 421 58z m3503 4 c84 -15 161 -55 217 -111 52 -52 57 -55 57 -35 0 27 60 97 102 119 36 19 58 23 138 23 107 -1 138 -12 188 -69 43 -49 52 -91 52 -237 0 -113 -2 -129 -21 -153 -23 -30 -72 -35 -105 -12 -16 12 -20 31 -24 140 -5 106 -9 130 -26 153 -33 44 -96 44 -124 1 -12 -19 -16 -89 -21 -403 -6 -419 -9 -439 -72 -530 -64 -94 -169 -143 -324 -152 -55 -4 -117 -1 -155 6 -78 15 -189 68 -245 115 -110 95 -126 268 -30 326 58 36 161 19 187 -29 5 -11 10 -39 10 -62 0 -33 -6 -49 -27 -71 -32 -33 -27 -49 27 -86 75 -50 200 -66 299 -36 107 31 165 131 140 242 -21 97 -70 120 -319 153 -195 25 -243 39 -321 92 -77 52 -114 103 -135 186 -28 112 -1 229 72 310 96 107 276 154 460 120z m-4661 -33 c44 0 130 2 191 5 99 4 114 2 133 -15 14 -13 21 -31 21 -58 0 -69 -46 -91 -143 -69 -33 8 -42 6 -65 -14 l-27 -23 -3 -564 c-2 -309 2 -624 7 -698 7 -101 7 -141 -2 -160 l-12 -25 -190 0 c-105 -1 -200 3 -212 8 -30 13 -45 59 -32 97 14 39 61 53 135 39 60 -11 86 -3 106 34 17 32 21 392 10 864 -7 327 -11 395 -24 415 -15 21 -23 23 -108 23 -89 0 -93 1 -113 27 -18 24 -19 32 -9 67 17 54 43 63 162 53 52 -4 131 -7 175 -6z m5785 -1 c47 0 132 4 191 9 103 8 106 8 133 -16 35 -30 39 -89 7 -121 -19 -19 -26 -20 -90 -11 -134 18 -143 1 -149 -290 -8 -411 30 -560 162 -629 62 -32 185 -31 246 3 55 31 90 81 90 129 0 47 -8 56 -48 58 -66 3 -106 75 -77 136 23 49 69 71 138 65 122 -10 192 -130 167 -284 -30 -184 -190 -296 -401 -281 -98 6 -170 38 -243 107 l-53 50 -6 -41 c-9 -68 -15 -70 -193 -74 -198 -3 -224 6 -224 84 0 56 19 66 121 66 l93 0 20 35 c20 34 21 49 21 425 0 476 7 451 -115 441 -109 -10 -140 7 -140 75 0 35 17 59 50 72 8 3 60 3 115 -1 55 -4 138 -7 185 -7z"/>
 <path d="M1950 1935 c-148 -38 -220 -102 -220 -196 0 -44 37 -104 81 -133 84 -56 150 -70 329 -70 146 0 172 2 230 23 115 40 170 99 170 181 0 27 -8 58 -20 78 -24 39 -96 87 -165 109 -70 22 -330 28 -405 8z"/>
 <path d="M2082 1058 c-65 -10 -98 -27 -140 -69 -71 -72 -81 -186 -26 -276 23 -37 44 -55 94 -81 61 -32 70 -34 146 -30 65 3 90 10 127 31 61 36 103 89 117 149 42 173 -114 308 -318 276z"/>
 <path d="M223 1508 c-12 -6 -27 -23 -34 -39 -15 -37 2 -82 37 -98 35 -15 673 -15 708 0 55 26 55 112 0 138 -33 15 -680 14 -711 -1z"/>
 <path d="M223 1188 c-12 -6 -27 -23 -34 -39 -15 -37 2 -82 37 -98 35 -15 673 -15 708 0 55 26 55 112 0 138 -33 15 -680 14 -711 -1z"/>
 <path d="M223 868 c-12 -6 -27 -23 -34 -39 -15 -37 2 -82 37 -98 35 -15 673 -15 708 0 55 26 55 112 0 138 -33 15 -680 14 -711 -1z"/>
 <path d="M4070 1551 c-127 -42 -211 -146 -245 -306 -28 -131 -14 -324 31 -432 58 -138 172 -213 325 -213 236 0 359 162 359 476 0 226 -72 377 -215 452 -41 21 -66 26 -140 29 -49 1 -101 -1 -115 -6z"/>
 <path d="M7597 1547 c-51 -16 -106 -63 -123 -103 -20 -48 -18 -123 5 -160 45 -74 117 -103 316 -128 99 -13 132 -21 188 -50 l67 -34 0 93 c0 161 -26 242 -101 309 -65 59 -120 79 -224 83 -52 1 -106 -3 -128 -10z"/>
 </g>

</svg>